{
  "accessors": [
    {
      "bufferView": 2,
      "componentType": 5126,
      "count": 258,
      "max": [
        0.04268300160765648,
        -0.04537700116634369,
        0.04673999920487404
      ],
      "min": [
        -0.04268300160765648,
        -0.047492001205682755,
        0.02664799988269806
      ],
      "type": "VEC3"
    },
    {
      "bufferView": 2,
      "byteOffset": 3096,
      "componentType": 5126,
      "count": 258,
      "max": [
        0.4633791744709015,
        1.0,
        0.4633791744709015
      ],
      "min": [
        -0.4633791744709015,
        0.8861446380615234,
        -0.4633791744709015
      ],
      "type": "VEC3"
    },
    {
      "bufferView": 1,
      "componentType": 5126,
      "count": 258,
      "max": [
        0.2934750020503998,
        0.27265599370002747
      ],
      "min": [
        0.2597930133342743,
        0.23898500204086304
      ],
      "type": "VEC2"
    },
    {
      "bufferView": 0,
      "componentType": 5125,
      "count": 1344,
      "type": "SCALAR"
    },
    {
      "bufferView": 2,
      "byteOffset": 6192,
      "componentType": 5126,
      "count": 8,
      "max": [
        0.07030200213193893,
        0.010472999885678291,
        0.04387800022959709
      ],
      "min": [
        -0.07030200213193893,
        0.009986000135540962,
        0.037356000393629074
      ],
      "type": "VEC3"
    },
    {
      "bufferView": 1,
      "byteOffset": 2064,
      "componentType": 5126,
      "count": 8,
      "max": [
        0.0,
        0.0
      ],
      "min": [
        0.0,
        0.0
      ],
      "type": "VEC2"
    },
    {
      "bufferView": 0,
      "byteOffset": 5376,
      "componentType": 5125,
      "count": 8,
      "type": "SCALAR"
    },
    {
      "bufferView": 2,
      "byteOffset": 6288,
      "componentType": 5126,
      "count": 1408,
      "max": [
        0.08112400025129318,
        -0.012639000080525875,
        0.13293099403381348
      ],
      "min": [
        -0.08112400025129318,
        -0.07827199995517731,
        -0.08980999886989594
      ],
      "type": "VEC3"
    },
    {
      "bufferView": 2,
      "byteOffset": 23184,
      "componentType": 5126,
      "count": 1408,
      "max": [
        1.0,
        1.0,
        1.0
      ],
      "min": [
        -1.0,
        -1.0,
        -1.0
      ],
      "type": "VEC3"
    },
    {
      "bufferView": 3,
      "componentType": 5126,
      "count": 1408,
      "max": [
        0.9999344944953918,
        0.9914683699607849,
        0.6097788214683533,
        1.0
      ],
      "min": [
        -0.9999344944953918,
        -0.9917754530906677,
        -0.6097694635391235,
        1.0
      ],
      "type": "VEC4"
    },
    {
      "bufferView": 1,
      "byteOffset": 2128,
      "componentType": 5126,
      "count": 1408,
      "max": [
        0.9691110253334045,
        0.9915630221366882
      ],
      "min": [
        0.011269000358879566,
        0.01080199982970953
      ],
      "type": "VEC2"
    },
    {
      "bufferView": 0,
      "byteOffset": 5408,
      "componentType": 5125,
      "count": 7536,
      "type": "SCALAR"
    },
    {
      "bufferView": 2,
      "byteOffset": 40080,
      "componentType": 5126,
      "count": 80,
      "max": [
        0.0709099993109703,
        0.004645000211894512,
        0.04903599992394447
      ],
      "min": [
        -0.0709099993109703,
        -0.046473998576402664,
        0.013651000335812569
      ],
      "type": "VEC3"
    },
    {
      "bufferView": 2,
      "byteOffset": 41040,
      "componentType": 5126,
      "count": 80,
      "max": [
        0.8645686507225037,
        -0.5012140274047852,
        0.18980424106121063
      ],
      "min": [
        -0.8645686507225037,
        -0.9994218349456787,
        -0.0846027210354805
      ],
      "type": "VEC3"
    },
    {
      "bufferView": 1,
      "byteOffset": 13392,
      "componentType": 5126,
      "count": 80,
      "max": [
        0.310916006565094,
        0.7757890224456787
      ],
      "min": [
        0.10398100316524506,
        0.6667649745941162
      ],
      "type": "VEC2"
    },
    {
      "bufferView": 0,
      "byteOffset": 35552,
      "componentType": 5125,
      "count": 336,
      "type": "SCALAR"
    },
    {
      "bufferView": 2,
      "byteOffset": 42000,
      "componentType": 5126,
      "count": 6269,
      "max": [
        0.0974389985203743,
        0.16341499984264374,
        0.16051800549030304
      ],
      "min": [
        -0.0974389985203743,
        -0.08291800320148468,
        -0.0032240001019090414
      ],
      "type": "VEC3"
    },
    {
      "bufferView": 2,
      "byteOffset": 117228,
      "componentType": 5126,
      "count": 6269,
      "max": [
        0.999985933303833,
        1.0,
        1.0
      ],
      "min": [
        -0.999985933303833,
        -1.0,
        -1.0
      ],
      "type": "VEC3"
    },
    {
      "bufferView": 3,
      "byteOffset": 22528,
      "componentType": 5126,
      "count": 6269,
      "max": [
        0.9999696612358093,
        1.0,
        0.9982961416244507,
        1.0
      ],
      "min": [
        -0.9999982714653015,
        -0.9999995231628418,
        -0.9976531267166138,
        -1.0
      ],
      "type": "VEC4"
    },
    {
      "bufferView": 1,
      "byteOffset": 14032,
      "componentType": 5126,
      "count": 6269,
      "max": [
        0.9904590249061584,
        0.9926350116729736
      ],
      "min": [
        0.013031999580562115,
        0.012272999621927738
      ],
      "type": "VEC2"
    },
    {
      "bufferView": 0,
      "byteOffset": 36896,
      "componentType": 5125,
      "count": 31584,
      "type": "SCALAR"
    },
    {
      "bufferView": 2,
      "byteOffset": 192456,
      "componentType": 5126,
      "count": 397,
      "max": [
        0.016720000654459,
        0.15616300702095032,
        0.06840299814939499
      ],
      "min": [
        -0.08614999800920486,
        0.02904600091278553,
        -0.005609000101685524
      ],
      "type": "VEC3"
    },
    {
      "bufferView": 2,
      "byteOffset": 197220,
      "componentType": 5126,
      "count": 397,
      "max": [
        0.9691218137741089,
        1.0,
        1.0
      ],
      "min": [
        -0.9997959733009338,
        -1.0,
        -1.0
      ],
      "type": "VEC3"
    },
    {
      "bufferView": 1,
      "byteOffset": 64184,
      "componentType": 5126,
      "count": 397,
      "max": [
        0.9471089839935303,
        1.0
      ],
      "min": [
        0.009999999776482582,
        0.0
      ],
      "type": "VEC2"
    },
    {
      "bufferView": 0,
      "byteOffset": 163232,
      "componentType": 5125,
      "count": 804,
      "type": "SCALAR"
    },
    {
      "bufferView": 2,
      "byteOffset": 201984,
      "componentType": 5126,
      "count": 10456,
      "max": [
        0.08224999904632568,
        0.15904200077056885,
        0.13411100208759308
      ],
      "min": [
        -0.08224999904632568,
        -0.0789479985833168,
        -0.09193599969148636
      ],
      "type": "VEC3"
    },
    {
      "bufferView": 2,
      "byteOffset": 327456,
      "componentType": 5126,
      "count": 10456,
      "max": [
        1.0,
        1.0,
        1.0
      ],
      "min": [
        -1.0,
        -1.0,
        -1.0
      ],
      "type": "VEC3"
    },
    {
      "bufferView": 3,
      "byteOffset": 122832,
      "componentType": 5126,
      "count": 10456,
      "max": [
        1.0,
        1.0,
        1.0,
        1.0
      ],
      "min": [
        -1.0,
        -1.0,
        -1.0,
        -1.0
      ],
      "type": "VEC4"
    },
    {
      "bufferView": 1,
      "byteOffset": 67360,
      "componentType": 5126,
      "count": 10456,
      "max": [
        0.995826005935669,
        0.9970030188560486
      ],
      "min": [
        0.006523000076413155,
        0.006632000207901001
      ],
      "type": "VEC2"
    },
    {
      "bufferView": 0,
      "byteOffset": 166448,
      "componentType": 5125,
      "count": 48630,
      "type": "SCALAR"
    },
    {
      "bufferView": 2,
      "byteOffset": 452928,
      "componentType": 5126,
      "count": 578,
      "max": [
        0.06040399894118309,
        0.15797799825668335,
        0.0770919993519783
      ],
      "min": [
        -0.06040399894118309,
        -0.047492001205682755,
        -0.05508299916982651
      ],
      "type": "VEC3"
    },
    {
      "bufferView": 2,
      "byteOffset": 459864,
      "componentType": 5126,
      "count": 578,
      "max": [
        0.9944277405738831,
        1.0,
        0.9985352158546448
      ],
      "min": [
        -0.999919056892395,
        -0.9999089241027832,
        -0.9973350763320923
      ],
      "type": "VEC3"
    },
    {
      "bufferView": 3,
      "byteOffset": 290128,
      "componentType": 5126,
      "count": 578,
      "max": [
        0.9999255537986755,
        0.9827526211738586,
        0.9994961023330688,
        1.0
      ],
      "min": [
        -0.9999258518218994,
        -0.9817368984222412,
        -0.9994956851005554,
        -1.0
      ],
      "type": "VEC4"
    },
    {
      "bufferView": 1,
      "byteOffset": 151008,
      "componentType": 5126,
      "count": 578,
      "max": [
        0.9272029995918274,
        0.8089410066604614
      ],
      "min": [
        0.02105499990284443,
        0.014119000174105167
      ],
      "type": "VEC2"
    },
    {
      "bufferView": 0,
      "byteOffset": 360968,
      "componentType": 5125,
      "count": 1152,
      "type": "SCALAR"
    },
    {
      "bufferView": 2,
      "byteOffset": 466800,
      "componentType": 5126,
      "count": 1964,
      "max": [
        0.08045099675655365,
        0.09629599750041962,
        0.05367700010538101
      ],
      "min": [
        -0.08630800247192383,
        -0.04709099978208542,
        -0.006314000114798546
      ],
      "type": "VEC3"
    },
    {
      "bufferView": 2,
      "byteOffset": 490368,
      "componentType": 5126,
      "count": 1964,
      "max": [
        1.0,
        1.0,
        1.0
      ],
      "min": [
        -1.0,
        -1.0,
        -1.0
      ],
      "type": "VEC3"
    },
    {
      "bufferView": 3,
      "byteOffset": 299376,
      "componentType": 5126,
      "count": 1964,
      "max": [
        0.9990156292915344,
        0.9992980360984802,
        1.0,
        1.0
      ],
      "min": [
        -0.9986744523048401,
        -0.9973295331001282,
        -1.0,
        1.0
      ],
      "type": "VEC4"
    },
    {
      "bufferView": 1,
      "byteOffset": 155632,
      "componentType": 5126,
      "count": 1964,
      "max": [
        0.9705119729042053,
        0.9778919816017151
      ],
      "min": [
        0.031183000653982162,
        0.012396999634802341
      ],
      "type": "VEC2"
    },
    {
      "bufferView": 0,
      "byteOffset": 365576,
      "componentType": 5125,
      "count": 8262,
      "type": "SCALAR"
    }
  ],
  "asset": {
    "extras": {
      "author": "TuszPro (https://sketchfab.com/TuszPro)",
      "license": "CC-BY-SA-4.0 (http://creativecommons.org/licenses/by-sa/4.0/)",
      "source": "https://sketchfab.com/3d-models/tactical-headgear-sg-concept-94e116633c284629946140f2c031ad39",
      "title": "Tactical Headgear SG Concept"
    },
    "generator": "Sketchfab-15.27.0",
    "version": "2.0"
  },
  "bufferViews": [
    {
      "buffer": 0,
      "byteLength": 398624,
      "name": "floatBufferViews",
      "target": 34963
    },
    {
      "buffer": 0,
      "byteLength": 171344,
      "byteOffset": 398624,
      "byteStride": 8,
      "name": "floatBufferViews",
      "target": 34962
    },
    {
      "buffer": 0,
      "byteLength": 513936,
      "byteOffset": 569968,
      "byteStride": 12,
      "name": "floatBufferViews",
      "target": 34962
    },
    {
      "buffer": 0,
      "byteLength": 330800,
      "byteOffset": 1083904,
      "byteStride": 16,
      "name": "floatBufferViews",
      "target": 34962
    }
  ],
  "buffers": [
    {
      "byteLength": 1414704,
      "uri": "scene.bin"
    }
  ],
  "extensionsUsed": [
    "KHR_materials_specular",
    "KHR_materials_emissive_strength"
  ],
  "images": [
    {
      "uri": "textures/Cap_THSG_baseColor.png"
    },
    {
      "uri": "textures/Cap_THSG_normal.png"
    },
    {
      "uri": "textures/MASCK_EST_baseColor.png"
    },
    {
      "uri": "textures/MASCK_EST_normal.png"
    },
    {
      "uri": "textures/Oculos_baseColor.png"
    },
    {
      "uri": "textures/Oculos_normal.png"
    },
    {
      "uri": "textures/Tela_baseColor.png"
    },
    {
      "uri": "textures/Tela_normal.png"
    }
  ],
  "materials": [
    {
      "doubleSided": true,
      "extensions": {
        "KHR_materials_specular": {
          "specularColorFactor": [
            1.0,
            1.0,
            1.0
          ],
          "specularFactor": 0.6445733929855786
        }
      },
      "name": "Cap_THSG",
      "normalTexture": {
        "index": 1
      },
      "pbrMetallicRoughness": {
        "baseColorTexture": {
          "index": 0
        },
        "metallicFactor": 0.40685838280649994,
        "roughnessFactor": 0.854860844590645
      }
    },
    {
      "doubleSided": true,
      "emissiveFactor": [
        0.0006849502726102269,
        1.0,
        0.0
      ],
      "extensions": {
        "KHR_materials_emissive_strength": {
          "emissiveStrength": 10.0
        }
      },
      "name": "GLOW_VERDE",
      "pbrMetallicRoughness": {
        "baseColorFactor": [
          0.8,
          0.8,
          0.8,
          1.0
        ],
        "metallicFactor": 0.0,
        "roughnessFactor": 0.8011823178082373
      }
    },
    {
      "doubleSided": true,
      "name": "MASCK_EST",
      "normalTexture": {
        "index": 3
      },
      "pbrMetallicRoughness": {
        "baseColorTexture": {
          "index": 2
        },
        "metallicFactor": 0.6628591629993539,
        "roughnessFactor": 0.8011823178082373
      }
    },
    {
      "doubleSided": true,
      "emissiveFactor": [
        0.0018548210922010985,
        0.7926760664667007,
        0.6197839029519564
      ],
      "extensions": {
        "KHR_materials_emissive_strength": {
          "emissiveStrength": 10.0
        }
      },
      "name": "Material",
      "pbrMetallicRoughness": {
        "baseColorFactor": [
          0.21838899999999983,
          0.9035239999999999,
          0.7490319999999995,
          1.0
        ],
        "metallicFactor": 0.0,
        "roughnessFactor": 0.8011823178082373
      }
    },
    {
      "doubleSided": true,
      "name": "Oculos",
      "normalTexture": {
        "index": 5
      },
      "pbrMetallicRoughness": {
        "baseColorTexture": {
          "index": 4
        },
        "metallicFactor": 0.0,
        "roughnessFactor": 0.8011823178082373
      }
    },
    {
      "doubleSided": true,
      "name": "Tela",
      "normalTexture": {
        "index": 7
      },
      "pbrMetallicRoughness": {
        "baseColorTexture": {
          "index": 6
        },
        "metallicFactor": 0.0,
        "roughnessFactor": 0.8011823178082373
      }
    },
    {
      "alphaMode": "BLEND",
      "doubleSided": true,
      "extensions": {
        "KHR_materials_specular": {
          "specularColorFactor": [
            1.0,
            1.0,
            1.0
          ],
          "specularFactor": 0.4678109495190842
        }
      },
      "name": "lente",
      "pbrMetallicRoughness": {
        "baseColorFactor": [
          0.0,
          0.0,
          0.0,
          0.6994307030269045
        ],
        "roughnessFactor": 0.8011823178082373
      }
    }
  ],
  "meshes": [
    {
      "name": "Object_0",
      "primitives": [
        {
          "attributes": {
            "NORMAL": 1,
            "POSITION": 0,
            "TEXCOORD_0": 2
          },
          "indices": 3,
          "material": 3,
          "mode": 4
        }
      ]
    },
    {
      "name": "Object_1",
      "primitives": [
        {
          "attributes": {
            "POSITION": 4,
            "TEXCOORD_0": 5
          },
          "indices": 6,
          "material": 4,
          "mode": 1
        }
      ]
    },
    {
      "name": "Object_2",
      "primitives": [
        {
          "attributes": {
            "NORMAL": 8,
            "POSITION": 7,
            "TANGENT": 9,
            "TEXCOORD_0": 10
          },
          "indices": 11,
          "material": 5,
          "mode": 4
        }
      ]
    },
    {
      "name": "Object_3",
      "primitives": [
        {
          "attributes": {
            "NORMAL": 13,
            "POSITION": 12,
            "TEXCOORD_0": 14
          },
          "indices": 15,
          "material": 6,
          "mode": 4
        }
      ]
    },
    {
      "name": "Object_4",
      "primitives": [
        {
          "attributes": {
            "NORMAL": 17,
            "POSITION": 16,
            "TANGENT": 18,
            "TEXCOORD_0": 19
          },
          "indices": 20,
          "material": 0,
          "mode": 4
        }
      ]
    },
    {
      "name": "Object_5",
      "primitives": [
        {
          "attributes": {
            "NORMAL": 22,
            "POSITION": 21,
            "TEXCOORD_0": 23
          },
          "indices": 24,
          "material": 1,
          "mode": 4
        }
      ]
    },
    {
      "name": "Object_6",
      "primitives": [
        {
          "attributes": {
            "NORMAL": 26,
            "POSITION": 25,
            "TANGENT": 27,
            "TEXCOORD_0": 28
          },
          "indices": 29,
          "material": 2,
          "mode": 4
        }
      ]
    },
    {
      "name": "Object_7",
      "primitives": [
        {
          "attributes": {
            "NORMAL": 31,
            "POSITION": 30,
            "TANGENT": 32,
            "TEXCOORD_0": 33
          },
          "indices": 34,
          "material": 2,
          "mode": 4
        }
      ]
    },
    {
      "name": "Object_8",
      "primitives": [
        {
          "attributes": {
            "NORMAL": 36,
            "POSITION": 35,
            "TANGENT": 37,
            "TEXCOORD_0": 38
          },
          "indices": 39,
          "material": 4,
          "mode": 4
        }
      ]
    }
  ],
  "nodes": [
    {
      "children": [
        1
      ],
      "matrix": [
        1.0,
        0.0,
        0.0,
        0.0,
        0.0,
        2.220446049250313e-16,
        -1.0,
        0.0,
        0.0,
        1.0,
        2.220446049250313e-16,
        0.0,
        0.0,
        0.0,
        0.0,
        1.0
      ],
      "name": "Sketchfab_model"
    },
    {
      "children": [
        2,
        3,
        4,
        5,
        6,
        7,
        8,
        9,
        10
      ],
      "name": "Elite_Hunter_Stencil_final.obj.cleaner.materialmerger.gles"
    },
    {
      "mesh": 0,
      "name": "Object_2"
    },
    {
      "mesh": 1,
      "name": "Object_3"
    },
    {
      "mesh": 2,
      "name": "Object_4"
    },
    {
      "mesh": 3,
      "name": "Object_5"
    },
    {
      "mesh": 4,
      "name": "Object_6"
    },
    {
      "mesh": 5,
      "name": "Object_7"
    },
    {
      "mesh": 6,
      "name": "Object_8"
    },
    {
      "mesh": 7,
      "name": "Object_9"
    },
    {
      "mesh": 8,
      "name": "Object_10"
    }
  ],
  "samplers": [
    {
      "magFilter": 9729,
      "minFilter": 9987,
      "wrapS": 10497,
      "wrapT": 10497
    }
  ],
  "scene": 0,
  "scenes": [
    {
      "name": "Sketchfab_Scene",
      "nodes": [
        0
      ]
    }
  ],
  "textures": [
    {
      "sampler": 0,
      "source": 0
    },
    {
      "sampler": 0,
      "source": 1
    },
    {
      "sampler": 0,
      "source": 2
    },
    {
      "sampler": 0,
      "source": 3
    },
    {
      "sampler": 0,
      "source": 4
    },
    {
      "sampler": 0,
      "source": 5
    },
    {
      "sampler": 0,
      "source": 6
    },
    {
      "sampler": 0,
      "source": 7
    }
  ]
}
